#!OML:ASF X:\für Bonn\!DataBase\2005_08_12_Daniel\c3d\Daniel.ASF
:FULLY-SPECIFIED
:DEGREES
49
root 12.2535 14.7511 -4.44757 -732.409 -57.0256 -0.885903
lowerback 57.7421 0.764279 -1.1808
upperback 11.1614 -2.26858 -4.73436
thorax -9.03205 -1.45091 -3.59764
lowerneck 1.21701 4.95508 -3.49382
upperneck 5.51477 6.82249 -7.59615
head 1.68925 3.15375 -1.72719
rclavicle -4.92986e-014 2.22639e-014
rhumerus -14.8381 16.9781 -81.4969
rradius 38.94
rwrist 4.5378
rhand -17.0857 -341.769
rfingers 7.12502
rthumb 9.15267 -371.55
lclavicle -4.92986e-014 2.22639e-014
lhumerus -376.129 6.1589 -287.059
lradius 44.3098
lwrist -10.6047
lhand -17.5852 353.421
lfingers 7.12502
lthumb 8.6706 383.223
rfemur -22.5333 -12.8171 25.0142
rtibia 75.9764
rfoot -26.5675 17.8304
rtoes 13.8666
lfemur -43.6872 -5.49857 -9.72977
ltibia 57.6578
lfoot -8.15635 -16.1665
ltoes -5.36005
50
root 12.2691 14.6217 -4.37461 -732.353 -57.478 -1.20134
lowerback 58.5781 0.942447 -1.30154
upperback 11.0992 -2.20935 -4.70874
thorax -9.13548 -1.43754 -3.55155
lowerneck 0.97951 4.88467 -3.36499
upperneck 5.67526 6.76243 -7.73902
head 1.79236 3.11134 -1.78929
rclavicle 3.02153e-014 -5.56597e-014
rhumerus -14.6065 17.5094 -81.1692
rradius 38.8452
rwrist 4.67968
rhand -16.7521 -341.777
rfingers 7.12502
rthumb 9.47453 -371.544
lclavicle 3.02153e-014 -5.56597e-014
lhumerus -375.769 5.95273 -287.31
lradius 44.3912
lwrist -10.515
lhand -17.7178 353.172
lfingers 7.12502
lthumb 8.54269 382.979
rfemur -23.4597 -13.402 24.611
rtibia 78.0341
rfoot -25.9973 19.0867
rtoes 14.4584
lfemur -44.6623 -5.01428 -9.71335
ltibia 59.4984
lfoot -7.37413 -16.6895
ltoes -4.8499
51
root 12.2842 14.4926 -4.30257 -732.293 -57.9169 -1.52526
lowerback 59.3787 1.10706 -1.41644
upperback 11.0494 -2.16613 -4.69285
thorax -9.2182 -1.43148 -3.51233
lowerneck 0.728237 4.81147 -3.25811
upperneck 5.81436 6.69735 -7.86595
head 1.88964 3.06684 -1.84305
rclavicle -7.95139e-015 9.85972e-014
rhumerus -14.3644 17.9839 -80.8638
rradius 38.7603
rwrist 4.86891
rhand -16.385 -341.832
rfingers 7.12502
rthumb 9.8287 -371.583
lclavicle -7.95139e-015 9.85972e-014
lhumerus -375.358 5.90334 -287.58
lradius 44.3805
lwrist -10.5535
lhand -17.8002 352.846
lfingers 7.12502
lthumb 8.46317 382.656
rfemur -24.3893 -13.9699 24.1814
rtibia 80.0665
rfoot -25.2805 20.3765
rtoes 15.2803
lfemur -45.6457 -4.51862 -9.68611
ltibia 61.3501
lfoot -6.78486 -16.9936
ltoes -4.30208
52
root 12.298 14.361 -4.23076 -732.299 -58.343 -1.83346
lowerback 60.1868 1.26555 -1.52248
upperback 11.0128 -2.13112 -4.68169
thorax -9.28103 -1.42986 -3.47976
lowerneck 0.51975 4.75083 -3.15861
upperneck 5.933 6.64365 -7.97985
head 1.97253 3.02977 -1.89279
rclavicle -4.92986e-014 -4.05521e-014
rhumerus -14.1362 18.4968 -80.5314
rradius 38.7164
rwrist 5.0285
rhand -15.9771 -341.826
rfingers 7.12502
rthumb 10.2222 -371.557
lclavicle -4.92986e-014 -4.05521e-014
lhumerus -374.913 5.82923 -287.866
lradius 44.3151
lwrist -10.5286
lhand -17.8934 352.53
lfingers 7.12502
lthumb 8.37318 382.344
rfemur -25.2482 -14.523 23.7009
rtibia 82.0811
rfoot -24.4767 21.6993
rtoes 16.1092
lfemur -46.5863 -4.01038 -9.68095
ltibia 63.2349
lfoot -6.41459 -17.1321
ltoes -4.18726
53
root 12.3095 14.2259 -4.16004 -732.344 -58.7586 -2.13621
lowerback 60.972 1.41571 -1.62915
upperback 10.9921 -2.10936 -4.67062
thorax -9.31931 -1.43531 -3.44162
lowerneck 0.463643 4.69603 -3.20596
upperneck 5.92878 6.57555 -8.03245
head 1.97965 2.99223 -1.90186
rclavicle 1.59028e-014 2.3059e-014
rhumerus -13.9561 18.9736 -80.2117
rradius 38.7285
rwrist 5.23319
rhand -15.5532 -341.782
rfingers 7.12502
rthumb 10.6312 -371.493
lclavicle 1.59028e-014 2.3059e-014
lhumerus -374.465 5.80293 -288.147
lradius 44.2242
lwrist -10.4634
lhand -18.0022 352.275
lfingers 7.12502
lthumb 8.26817 382.093
rfemur -26.0272 -15.0626 23.1977
rtibia 84.0705
rfoot -23.6575 22.9959
rtoes 16.7826
lfemur -47.5061 -3.50138 -9.66895
ltibia 65.1484
lfoot -6.23273 -17.2073
ltoes -4.20152
54
root 12.3197 14.0854 -4.08885 -732.384 -59.1733 -2.47897
lowerback 61.8101 1.55698 -1.69311
upperback 10.9412 -2.07922 -4.66715
thorax -9.38903 -1.43582 -3.43597
lowerneck 0.416587 4.62903 -3.22206
upperneck 5.92363 6.49001 -8.06933
head 1.9848 2.94745 -1.9117
rclavicle 1.27222e-014 -1.19271e-014
rhumerus -13.8402 19.513 -79.8931
rradius 38.8063
rwrist 5.33112
rhand -15.2268 -341.822
rfingers 7.12502
rthumb 10.946 -371.517
lclavicle 1.27222e-014 -1.19271e-014
lhumerus -374.006 5.74979 -288.454
lradius 44.0561
lwrist -10.4011
lhand -18.0653 352.011
lfingers 7.12502
lthumb 8.20728 381.832
rfemur -26.7505 -15.6137 22.6876
rtibia 86.0671
rfoot -22.9321 24.2322
rtoes 17.2426
lfemur -48.4124 -2.98387 -9.63789
ltibia 67.0978
lfoot -6.17837 -17.2458
ltoes -4.2215
55
root 12.3286 13.9428 -4.01734 -732.443 -59.5496 -2.80747
lowerback 62.61 1.6733 -1.76873
upperback 10.9067 -2.08389 -4.65983
thorax -9.43422 -1.45272 -3.4052
lowerneck 0.367403 4.57747 -3.32214
upperneck 5.90741 6.42356 -8.08487
head 1.9832 2.91102 -1.89988
rclavicle 3.02153e-014 -1.20066e-013
rhumerus -13.7281 20.022 -79.5621
rradius 38.9051
rwrist 5.48583
rhand -14.8607 -341.803
rfingers 7.12502
rthumb 11.2991 -371.479
lclavicle 3.02153e-014 -1.20066e-013
lhumerus -373.535 5.79899 -288.754
lradius 43.8407
lwrist -10.3087
lhand -18.1589 351.787
lfingers 7.12502
lthumb 8.11693 381.611
rfemur -27.4178 -16.2002 22.1313
rtibia 88.0473
rfoot -22.2784 25.4274
rtoes 17.597
lfemur -49.332 -2.50998 -9.61907
ltibia 69.069
lfoot -6.20097 -17.292
ltoes -4.0748
56
root 12.3368 13.7977 -3.94601 -732.52 -59.9038 -3.17533
lowerback 63.4195 1.77051 -1.78727
upperback 10.8803 -2.07867 -4.65741
thorax -9.46594 -1.46513 -3.40983
lowerneck 0.512122 4.50717 -3.44244
upperneck 5.74534 6.30654 -8.07676
head 1.89661 2.86073 -1.88229
rclavicle -5.24792e-014 1.05753e-013
rhumerus -13.6683 20.4153 -79.2551
rradius 39.0257
rwrist 5.62713
rhand -14.5829 -341.851
rfingers 7.12502
rthumb 11.567 -371.512
lclavicle -5.24792e-014 1.05753e-013
lhumerus -373.036 5.8311 -289.047
lradius 43.5426
lwrist -10.2803
lhand -18.2889 351.623
lfingers 7.12502
lthumb 7.99148 381.452
rfemur -28.0069 -16.7909 21.5503
rtibia 89.9985
rfoot -21.6378 26.6016
rtoes 17.9558
lfemur -50.1943 -2.06163 -9.5835
ltibia 71.0448
lfoot -6.30964 -17.4574
ltoes -3.82733
57
root 12.3417 13.6496 -3.87367 -732.624 -60.2643 -3.53592
lowerback 64.2096 1.86849 -1.80361
upperback 10.8755 -2.07667 -4.66927
thorax -9.46779 -1.47956 -3.43029
lowerneck 0.584517 4.45043 -3.58439
upperneck 5.62991 6.21435 -8.0227
head 1.83629 2.81967 -1.84387
rclavicle 5.24792e-014 -2.22639e-014
rhumerus -13.5781 20.7538 -78.9614
rradius 39.1399
rwrist 5.85977
rhand -14.39 -341.881
rfingers 7.12502
rthumb 11.753 -371.532
lclavicle 5.24792e-014 -2.22639e-014
lhumerus -372.528 5.86338 -289.36
lradius 43.2283
lwrist -10.19
lhand -18.4519 351.522
lfingers 7.12502
lthumb 7.83415 381.357
rfemur -28.4989 -17.3769 20.9153
rtibia 91.8895
rfoot -20.8644 27.8532
rtoes 18.3502
lfemur -51.0363 -1.58283 -9.54916
ltibia 73.0279
lfoot -6.42025 -17.7358
ltoes -3.39262
58
root 12.3456 13.4994 -3.80217 -732.744 -60.5695 -3.88684
lowerback 64.9916 1.94157 -1.81173
upperback 10.858 -2.0957 -4.6828
thorax -9.48072 -1.502 -3.44684
lowerneck 0.721581 4.3805 -3.72656
upperneck 5.49067 6.09731 -7.96058
head 1.75635 2.76893 -1.80461
rclavicle 3.49861e-014 3.33958e-014
rhumerus -13.5061 21.0094 -78.7122
rradius 39.2174
rwrist 6.11317
rhand -14.1905 -341.911
rfingers 7.12502
rthumb 11.9454 -371.55
lclavicle 3.49861e-014 3.33958e-014
lhumerus -372.031 5.90359 -289.683
lradius 42.8393
lwrist -10.1228
lhand -18.6675 351.426
lfingers 7.12502
lthumb 7.6261 381.268
rfemur -28.9358 -17.988 20.2369
rtibia 93.7344
rfoot -19.9682 29.0856
rtoes 18.9366
lfemur -51.8649 -1.12598 -9.53191
ltibia 74.9927
lfoot -6.56203 -18.0519
ltoes -2.90906
59
root 12.3472 13.3487 -3.73075 -732.875 -60.8646 -4.2689
lowerback 65.7919 2.00157 -1.79504
upperback 10.8478 -2.11839 -4.7027
thorax -9.48071 -1.52635 -3.48021
lowerneck 0.81551 4.31059 -3.88955
upperneck 5.35993 5.98335 -7.87572
head 1.68568 2.71852 -1.75347
rclavicle -1.27222e-014 1.27222e-014
rhumerus -13.3871 21.1368 -78.4961
rradius 39.2491
rwrist 6.42619
rhand -14.0887 -341.957
rfingers 7.12502
rthumb 12.0436 -371.59
lclavicle -1.27222e-014 1.27222e-014
lhumerus -371.467 6.05821 -289.978
lradius 42.3578
lwrist -10.1246
lhand -18.9007 351.304
lfingers 7.12502
lthumb 7.40097 381.155
rfemur -29.2775 -18.6448 19.502
rtibia 95.5269
rfoot -18.9209 30.3744
rtoes 19.5973
lfemur -52.6382 -0.741763 -9.48878
ltibia 76.9452
lfoot -6.8013 -18.35
ltoes -2.56922
60
root 12.3477 13.1958 -3.65951 -732.992 -61.1565 -4.6756
lowerback 66.559 2.046 -1.7591
upperback 10.8471 -2.14727 -4.73729
thorax -9.46729 -1.55267 -3.53532
lowerneck 0.888589 4.2455 -4.0463
upperneck 5.2661 5.87918 -7.77027
head 1.63072 2.67132 -1.69611
rclavicle 3.65764e-014 -4.77083e-014
rhumerus -13.2476 21.1102 -78.3246
rradius 39.2278
rwrist 6.87145
rhand -14.031 -341.952
rfingers 7.12502
rthumb 12.0992 -371.582
lclavicle 3.65764e-014 -4.77083e-014
lhumerus -370.897 6.30691 -290.296
lradius 41.8082
lwrist -10.1754
lhand -19.0962 351.144
lfingers 7.12502
lthumb 7.21232 381.001
rfemur -29.5836 -19.3124 18.7508
rtibia 97.2881
rfoot -17.9172 31.5837
rtoes 20.1256
lfemur -53.3885 -0.383268 -9.42154
ltibia 78.8791
lfoot -7.06422 -18.6409
ltoes -2.13746
